<svg width="620" height="180" xmlns="http://www.w3.org/2000/svg">

 <g>
  <title>background</title>
  <rect fill="none" id="canvas_background" height="182" width="622" y="-1" x="-1"/>
 </g>
 <g>
  <title>Layer 1</title>
  <rect x="10" id="svg_1" height="462" width="792" fill="none" y="79"/>
  <rect x="8" id="svg_2" height="462" width="792" fill="none" y="80"/>
  <g id="svg_3">
   <g id="svg_4">
    <g id="XMLID_1_">
     <g id="svg_5">
      <polygon id="svg_6" points="528.5999755859375,154.79998779296875 528.5999755859375,165.10000610351562 478.20001220703125,165.10000610351562 478.20001220703125,120 528.2000122070312,120 528.2000122070312,130.29998779296875 491.70001220703125,130.29998779296875 491.70001220703125,137.89999389648438 526.0999755859375,137.89999389648438 526.0999755859375,146.79998779296875 491.70001220703125,146.79998779296875 491.70001220703125,154.79998779296875 " fill="#112A17"/>
      <polygon id="svg_7" points="471.4000244140625,120 446.5,165.10000610351562 429.1000061035156,165.10000610351562 405.1000061035156,120 420.20001220703125,120 438,154.10000610351562 456.0999755859375,120 " fill="#112A17"/>
      <rect id="svg_8" height="45" width="13.7" fill="#112A17" y="120" x="384.5"/>
      <path id="svg_9" d="m374,151.10001c0,6 -1.60001,10 -5,11.80002c-3.10001,1.59998 -11.10001,2.59998 -24,2.59998c-9.79999,0 -16.29999,-0.29999 -19.39999,-1c-3,-0.69998 -5.10001,-1.89999 -6.30002,-4c-1.09998,-1.69998 -1.59998,-4.19998 -1.59998,-7.39999c0,-0.29999 0,-1.19998 0,-2.39999l13.39999,0c0,1.29999 0.19998,2.20001 0.29999,2.70001c0.30002,0.89999 0.89999,1.5 1.89999,1.79999c0.70001,0.20001 2,0.39999 3.70001,0.5l5.29999,0.20001c0.80002,0 4.10001,0 10.10001,-0.20001c2.39999,0 4.10001,-0.20001 5,-0.60001c1.80002,-0.69998 2.70001,-1.79999 2.70001,-3.60001c0,-2.29999 -1.30002,-3.5 -4,-4c-0.70001,-0.09998 -3,-0.19998 -6.89999,-0.19998l-12.20001,0c-6.10001,0 -10.20001,-0.30002 -12.5,-1c-2.70001,-0.80002 -4.60001,-2.39999 -5.79999,-4.80002c-0.80002,-1.79999 -1.20001,-4.29999 -1.20001,-7.59998c0,-5.20001 1.20001,-8.80002 3.60001,-10.80002c2.10001,-1.69998 5.89999,-2.69998 11.39999,-3.29999c2.20001,-0.20001 6.60001,-0.30002 13.10001,-0.30002c9.39999,0 15.29999,0.20001 17.69998,0.80002c3.20001,0.69998 5.40002,2.10001 6.80002,4c1.19998,1.79999 1.79999,4.39999 1.79999,7.79999l0,1.60001l-13.39999,0c0,-2.29999 -1.20001,-3.70001 -3.70001,-4.29999c-0.5,-0.10001 -2.69998,-0.20001 -6.59998,-0.20001c-5.40002,0 -9.60001,0.10001 -12.5,0.29999c-1.60001,0.10001 -2.70001,0.30002 -3.40002,0.70001c-1,0.60001 -1.5,1.60001 -1.5,3c0,1.89999 1,3.10001 2.90002,3.60001c0.79999,0.19998 2.69998,0.29999 5.5,0.29999l12.79999,0c0.79999,0 3.10001,0.10001 6.79999,0.20001c4.20001,0.19998 7.20001,0.60001 8.90002,1.29999c4.29999,1.89999 6.29999,5.89999 6.29999,12.5z" fill="#112A17"/>
      <path id="svg_10" d="m308,151.10001c0,6 -1.60001,10 -5,11.80002c-3.10001,1.59998 -11.10001,2.59998 -24,2.59998c-9.79999,0 -16.29999,-0.29999 -19.29999,-1c-3,-0.69998 -5.10001,-1.89999 -6.30002,-4c-1.10001,-1.69998 -1.60001,-4.19998 -1.60001,-7.39999c0,-0.29999 0,-1.19998 0,-2.39999l13.40002,0c0.09998,1.29999 0.19998,2.20001 0.29999,2.70001c0.29999,0.89999 0.89999,1.5 1.89999,1.79999c0.70001,0.20001 2,0.39999 3.70001,0.5l5.29999,0.20001c0.80002,0 4.10001,0 10.10001,-0.20001c2.39999,0 4,-0.20001 5,-0.60001c1.79999,-0.69998 2.70001,-1.79999 2.70001,-3.60001c0,-2.29999 -1.30002,-3.5 -4,-4c-0.70001,-0.09998 -3,-0.19998 -6.90002,-0.19998l-12.29999,0c-6.10001,0 -10.20001,-0.30002 -12.39999,-1c-2.70001,-0.80002 -4.60001,-2.39999 -5.80002,-4.80002c-0.79999,-1.79999 -1.19998,-4.29999 -1.19998,-7.59998c0,-5.20001 1.19998,-8.80002 3.60001,-10.80002c2,-1.69998 5.89999,-2.69998 11.39999,-3.29999c2.19998,-0.20001 6.60001,-0.30002 13.10001,-0.30002c9.39999,0 15.29999,0.20001 17.69998,0.80002c3.20001,0.69998 5.39999,2.10001 6.80002,4c1.19998,1.79999 1.79999,4.39999 1.79999,7.79999l0,1.60001l-13.39999,0c0,-2.29999 -1.20001,-3.70001 -3.70001,-4.29999c-0.5,-0.10001 -2.69998,-0.20001 -6.60001,-0.20001c-5.39999,0 -9.59998,0.10001 -12.5,0.29999c-1.59998,0.10001 -2.69998,0.30002 -3.39999,0.70001c-1,0.60001 -1.5,1.60001 -1.5,3c0,1.89999 1,3.10001 2.89999,3.60001c0.80002,0.19998 2.70001,0.29999 5.5,0.29999l12.80002,0c0.79999,0 3.10001,0.10001 6.79999,0.20001c4.20001,0.19998 7.20001,0.60001 9,1.29999c4.10001,1.89999 6.10001,5.89999 6.10001,12.5z" fill="#112A17"/>
      <path id="svg_11" d="m221.60001,120l-18.39999,0l-25.29999,45l15.5,0l4.29999,-8.10001l29.10001,0l4.5,8.10001l15,0l-24.70001,-45zm-19,27.70001l9.60001,-17.89999l9.79999,17.89999l-19.39999,0z" fill="#112A17"/>
      <polygon id="svg_12" points="171.5,120 171.5,165.10000610351562 158.10000610351562,165.10000610351562 158.6999969482422,130.29998779296875 138.8000030517578,165.10000610351562 127.80000305175781,165.10000610351562 108.19999694824219,130.29998779296875 108.5,165.10000610351562 95.30000305175781,165.10000610351562 95.30000305175781,120 117.10000610351562,120 133.5,150 149.89999389648438,120 " fill="#112A17"/>
     </g>
    </g>
    <g id="svg_13">
     <g id="svg_14">
      <rect id="svg_15" height="6.5" width="63" fill="#112A17" y="139.3" x="539.3"/>
     </g>
    </g>
    <g id="svg_16">
     <g id="svg_17">
      <rect id="svg_18" height="6.5" width="58.8" fill="#112A17" y="139.3" x="21.6"/>
     </g>
    </g>
   </g>
   <g id="svg_19">
    <g id="svg_20">
     <g id="svg_21">
      <path id="svg_22" d="m161.5,71.5c-2,-2.10001 -4,-1.20001 -5.89999,0.39999c-2.5,2 -5,4.10001 -7.90001,5.5c-9.5,4.89999 -19.2,5.39999 -29.59999,1.30002c3.59999,-7.5 7,-14.80002 10.59999,-21.90002c0.40001,-0.69998 1.90001,-1.19998 2.90001,-1.29999c4.29999,-0.39999 7.5,-2.29999 9.39999,-6.20001c2.60001,-5.29999 0.7,-10.79999 -4.8,-13.99998c-2.3,-1.3 -2.7,-3.10001 -1.3,-4.90001c1.90001,-2.59999 2.90001,-9.2 1.20001,-11.7c-0.40001,-0.59999 -1,-1.39999 -1.60001,-1.39999c-2.60001,-0.2 -6.39999,-1.60001 -7.39999,1.3c-1.20001,3.29999 -1.5,7.79999 -0.20001,10.89999c1.60001,3.5 2.60001,4 -0.7,6c-4.7,2.89999 -6.39999,7.60001 -4.7,13c0.2,0.79999 0.7,2 0.39999,2.60001c-3.7,7.69998 -7.5,15.29999 -11.39999,23.29999c-1.5,-1.19998 -2.60001,-2.10001 -3.60001,-3.10001c-1.79999,-1.59998 -3.7,-1.89999 -5.39999,-0.19998c-1.8,1.89999 -1.3,4 0.5,5.69998c1.7,1.60001 3.39999,3 5.39999,4.60001c-4.29999,7.20001 -7.59999,14.60001 -6.59999,23.20001c7.2,-4.5 11,-11.5 14.09999,-19.20001c1.5,0.5 2.60001,0.89999 3.70001,1.20001c15.7,4.5 29.79999,1.5 42.09999,-9.30002c1.7,-1.29999 2.90001,-3.5 0.8,-5.79999zm-30.2,-31.7c3,-0.10001 5.3,2.09999 5.3,4.99998c0,2.80002 -2.40001,5.30002 -5.20001,5.30002c-2.7,0 -5.2,-2.5 -5.09999,-5.30002c0,-2.69998 2.2,-4.89999 5,-4.99998z" fill="#112A17"/>
      <path id="svg_23" d="m135.10001,58.89999c2.40001,-1.5 4.60001,-2.80002 7.2,-4.5c2.8,5.60001 5.60001,11.29999 8.70001,17.39999c-2.40001,1.39999 -4.70001,2.79999 -7.3,4.5c-3.00002,-6.09998 -5.80002,-11.79999 -8.60001,-17.39999z" fill="#112A17"/>
      <path id="svg_24" d="m162.39999,104.89999c-5.8,-4.89999 -11,-9.60001 -12.60001,-16.89999c2.2,-1.20001 4.5,-2.5 6.90001,-3.80002c4.8,6.00003 5.8,13.00003 5.7,20.70001z" fill="#112A17"/>
     </g>
    </g>
    <g id="svg_25">
     <g id="XMLID_7_">
      <g id="svg_26">
       <path id="svg_27" d="m190,91.10001l0,8.70001l0,0.89999l0,0c-0.70001,3.10001 -2.10001,4.20001 -5.20001,4.20001c-2.39999,0 -4.69998,0 -7.09998,0c-3,0 -4.30002,-0.90002 -5.10001,-3.80002l0,-0.10001l0,-1.20001l0,-8.69998c0,-5.89999 0,-21 0,-26.60001c5.79999,0 11.5,0 17.29999,0" fill="#112A17"/>
       <path id="svg_28" d="m223.70001,28.10001c0,10.2 0,13.80002 0,24c0,0.70001 0,1.5 -0.20001,2.20001c-1.09998,4.89999 -5.09998,8.10001 -10.09998,8.10001c-5.90002,0 -11.80002,0 -17.70001,0c-6,0 -12,0 -17.89999,0c-4.20001,0 -7.8,-2.5 -9.40001,-6.40002c-0.89999,-2.19998 0.2,-3.89999 2.60001,-3.89999c10.59999,0 21.3,-0.10001 31.8,0c3.29999,0 5.79999,-2.39999 5.69998,-5.60001c-0.09998,-6.59999 0,-6.39999 0,-12.99998c0,-3.3 -2.09998,-5.40001 -5.39999,-5.40001c-10.60001,0 -21.5,0 -32.09999,0c-2.20001,0 -3.3,-1.7 -2.60001,-3.8c1.60001,-3.89999 5.3,-6.39999 9.40001,-6.39999c12,0 23.89999,0 35.79999,0c5.60001,-0.00002 10.10001,4.59999 10.10001,10.2z" fill="#112A17"/>
       <path id="svg_29" d="m194.20001,33c0,1.39999 0,2.7 0,4.2c-1.5,0 -2.79999,0 -4.20001,0c0,1.5 0,11.59999 0,13.00002c-5.89999,0 -11.5,0 -17.39999,0c0,-1.40002 0,-11.60001 0,-13.00002c-1.5,0 -2.89999,0 -4.2,0c0,-1.5 0,-2.89999 0,-4.2c8.59999,0 17.2,0 25.8,0z" fill="#112A17"/>
      </g>
     </g>
     <polygon id="svg_30" points="227.89999389648438,104.89999389648438 211,104.89999389648438 197,64.39999389648438 213.39999389648438,64.39999389648438 " fill="#112A17"/>
    </g>
    <g id="svg_31">
     <g id="svg_32">
      <path id="svg_33" d="m464.70001,71.39999c-2,-2.10001 -4,-1.20001 -5.90002,0.39999c-2.5,2 -5,4.10001 -7.89996,5.5c-9.5,4.89999 -19.20001,5.39999 -29.60001,1.29999c3.60001,-7.5 7,-14.79999 10.60001,-21.89999c0.39996,-0.69998 1.89996,-1.19998 2.89996,-1.29999c4.30005,-0.39999 7.5,-2.30002 9.40002,-6.20001c2.59998,-5.29999 0.70001,-10.79999 -4.79999,-13.99998c-2.29999,-1.3 -2.70001,-3.10001 -1.29999,-4.90001c1.89996,-2.59999 2.89996,-9.2 1.19995,-11.7c-0.39996,-0.60001 -1,-1.39999 -1.5,-1.39999c-2.59998,-0.20001 -6.39996,-1.70001 -7.39996,1.29999c-1.20001,3.3 -1.5,7.8 -0.20001,10.90001c1.59998,3.5 2.59998,4 -0.70001,6c-4.69998,2.89999 -6.39999,7.60001 -4.69998,13c0.19998,0.79999 0.69998,2 0.39999,2.60001c-3.70001,7.69998 -7.5,15.29999 -11.39999,23.29999c-1.5,-1.20001 -2.60001,-2.10001 -3.60001,-3.10001c-1.79999,-1.60001 -3.70001,-1.89999 -5.39999,-0.19998c-1.80002,1.89999 -1.30002,4 0.5,5.69998c1.60001,1.60001 3.39999,3 5.39999,4.60001c-4.29999,7.20001 -7.60001,14.60001 -6.60001,23.20001c7.20001,-4.5 11,-11.5 14.10001,-19.20001c1.5,0.5 2.60001,0.89999 3.70001,1.20001c15.70001,4.5 29.79999,1.5 42.09998,-9.30002c1.59998,-1.49997 2.79999,-3.49997 0.70001,-5.79999zm-30.20001,-31.79999c3,-0.09999 5.29999,2.10001 5.29999,4.89999s-2.39996,5.30002 -5.20001,5.30002c-2.69995,0 -5.19998,-2.5 -5.09998,-5.30002c0,-2.70001 2.20001,-4.8 5,-4.89999z" fill="#112A17"/>
      <path id="svg_34" d="m438.40002,58.60001c2.40002,-1.5 4.59998,-2.89999 7.20001,-4.5c2.79999,5.60001 5.59998,11.30002 8.70001,17.39999c-2.40002,1.40002 -4.70001,2.80002 -7.40002,4.5c-3,-6 -5.80005,-11.70001 -8.5,-17.39999z" fill="#112A17"/>
      <path id="svg_35" d="m465.59998,105.20001c-5.79999,-4.89999 -11,-9.60001 -12.59998,-16.89999c2.19995,-1.20001 4.5,-2.5 6.89996,-3.80002c4.70001,5.89999 5.80005,12.89999 5.70001,20.70001z" fill="#112A17"/>
     </g>
    </g>
    <g id="svg_36">
     <g id="XMLID_6_">
      <g id="svg_37">
       <path id="svg_38" d="m493.40002,91.70001l-0.09998,8.20001l0,0.89999l0,0c-0.70001,3.10001 -2.10004,4.19998 -5.20001,4.19998c-2.40002,0 -4.70001,0 -7.10004,0c-3,0 -4.29999,-0.89999 -5.09998,-3.79999l0,-0.10001l0,-1.19998l0.09998,-8.20001c0,-5.89999 0,-21.5 0,-27.10001c5.80005,0 11.5,0 17.30005,0c0,5 0,19.10001 0,24.20001c0.09998,0.59998 0.09998,2.19998 0.09998,2.89999z" fill="#112A17"/>
       <path id="svg_39" d="m527.29999,27.89999c0,10.2 -0.09998,14 -0.20001,24.19998c0,0.70001 0,1.5 -0.20001,2.20001c-1.09998,4.89999 -5.09998,8.10001 -10.09998,8.10001c-5.90002,0 -11.79999,0 -17.70001,0c-6,0 -12,0 -17.89996,0c-4.20001,0 -7.80005,-2.5 -9.40002,-6.39999c-0.90002,-2.20001 0.20001,-3.90002 2.59998,-3.90002c10.60004,0 21.30005,-0.09998 31.80005,0c3.29999,0 5.79999,-2.39999 5.69995,-5.59998c-0.09998,-6.60001 0.10004,-6.7 0.10004,-13.3c0,-3.3 -2.10004,-5.40001 -5.40002,-5.40001c-10.59998,0 -21.5,0 -32.09998,0c-2.20001,0 -3.29999,-1.7 -2.60004,-3.7c1.60004,-3.89999 5.30005,-6.39999 9.40002,-6.39999c12,0 23.90002,0 35.79999,0c5.60004,0 10.10004,4.60001 10.20001,10.2z" fill="#112A17"/>
       <path id="svg_40" d="m497.59998,32.7c0,1.40001 0,2.7 0,4.2c-1.5,0 -2.79999,0 -4.20001,0c0,1.5 0,11.70001 0,13.10001c-5.89996,0 -11.5,0 -17.39996,0c0,-1.39999 0,-11.7 0,-13.2c-1.5,0 -2.90002,0 -4.20001,0c0,-1.5 0,-2.90001 0,-4.2c8.70001,0.09999 17.29999,0.09999 25.79999,0.09999z" fill="#112A17"/>
      </g>
     </g>
     <polygon id="svg_41" points="531.2000122070312,104.89999389648438 514.2999877929688,104.89999389648438 500.5,64.5 517,64.5 " fill="#112A17"/>
    </g>
    <path id="svg_42" d="m354.79999,32.8c1.10001,-0.2 2.10001,-0.3 3.10001,-0.5c0.10001,0.7 0.19998,1.39999 0.29999,2.09999c-1.39999,0.20001 -2.79999,0.40001 -4.10001,0.70001c0.20001,1.09999 0.30002,2.09999 0.5,3.2c1.40002,-0.2 2.80002,-0.40001 4.10001,-0.7c0.10001,0.7 0.20001,1.39999 0.30002,2.09999c-1.40002,0.2 -2.80002,0.40001 -4.10001,0.7c0.19998,1.10001 0.29999,2.10001 0.5,3.20001c3.10001,-0.5 6.10001,-1 9.19998,-1.39999c0.10001,0.69998 0.20001,1.39999 0.30002,2.09998c-3.10001,0.5 -6.10001,1 -9.20001,1.40002c0.20001,1.09998 0.30002,2.09998 0.5,3.19998c1.39999,-0.19998 2.80002,-0.39999 4.10001,-0.69998c0.10001,0.69998 0.20001,1.39999 0.29999,2.09998c-1.39999,0.20001 -2.79999,0.40002 -4.09998,0.70001c0.19998,1.10001 0.29999,2.10001 0.5,3.20001c1.39999,-0.20001 2.79999,-0.40002 4.09998,-0.70001c0.10001,0.70001 0.20001,1.39999 0.30002,2.10001c-1.39999,0.19998 -2.80002,0.39999 -4.10001,0.69998c0.20001,1.10001 0.29999,2.10001 0.5,3.20001c1.39999,-0.20001 2.70001,-0.39999 4.10001,-0.70001c0.10001,0.70001 0.19998,1.40002 0.29999,2.10001c-1.39999,0.20001 -2.79999,0.39999 -4.10001,0.70001c0.20001,1.10001 0.30002,2.10001 0.5,3.19998c1.40002,-0.19998 2.80002,-0.39999 4.10001,-0.69998c0.10001,0.69998 0.20001,1.39999 0.30002,2.10001c-1.40002,0.19998 -2.80002,0.39999 -4.10001,0.69998c0.19998,1.10001 0.29999,2.10001 0.5,3.20001c3.10001,-0.5 6.10001,-1 9.19998,-1.39999c0.10001,0.69998 0.20001,1.39999 0.30002,2.09998c-3.10001,0.5 -6.10001,1 -9.20001,1.40002c0.20001,1.09998 0.30002,2.09998 0.5,3.19998c1.39999,-0.19998 2.80002,-0.39999 4.10001,-0.69998c0.10001,0.69998 0.20001,1.39999 0.29999,2.09998c-1.39999,0.20001 -2.69998,0.40002 -4.09998,0.70001c0.19998,0.89999 0.19998,1.79999 0.39999,2.60001l0.10001,0.60001c1.39999,-0.20001 2.69998,-0.40002 4.09998,-0.70001c0.10001,0.70001 0.20001,1.39999 0.30002,2.10001c-1.39999,0.19998 -2.70001,0.39999 -4,0.69998l0.69998,3.10001c1.30002,-0.19998 2.60001,-0.39999 3.90002,-0.60001c0.09998,0.70001 0.19998,1.40002 0.29999,2.10001c-1.29999,0.20001 -2.60001,0.39999 -3.79999,0.60001l0.69998,3.20001c1.20001,-0.20001 2.5,-0.40002 3.70001,-0.60001c0.10001,0.69998 0.19998,1.39999 0.29999,2.10001c-1.19998,0.19998 -2.39999,0.39999 -3.60001,0.59998l0.70001,3.20001c2.89999,-0.39999 5.70001,-0.89999 8.5,-1.29999c0.10001,0.69998 0.20001,1.39999 0.29999,2.09998c-2.79999,0.40002 -5.59998,0.90002 -8.39999,1.30002l0.89999,4.5l21.40002,0l0.39999,-1.60001c0.10001,-0.20001 -0.20001,-0.20001 -0.30002,-0.20001c0.10001,-0.19998 0.20001,-0.59998 0.20001,-0.79999c-3,-0.79999 -6,-1.60001 -9,-2.29999c0.20001,-0.70001 0.29999,-1.40002 0.60001,-2.10001c3,0.69998 6,1.60001 9,2.29999c0.19998,-1.10001 0.60001,-2.10001 0.79999,-3.10001c-1.29999,-0.29999 -2.69998,-0.69998 -4,-1.09998c0.20001,-0.70001 0.30002,-1.40002 0.60001,-2.10001c1.29999,0.29999 2.60001,0.69998 4,1.10001c0.20001,-1.10001 0.60001,-2.10001 0.79999,-3.10001c-1.29999,-0.30002 -2.59998,-0.70001 -4,-1.10001c0.20001,-0.70001 0.30002,-1.39999 0.60001,-2.10001c1.30002,0.30002 2.70001,0.70001 4,1.10001c0.20001,-1.10001 0.60001,-2.10001 0.80002,-3.10001c-1.30002,-0.29999 -2.60001,-0.69998 -4,-1.10001c0.19998,-0.69998 0.29999,-1.39999 0.59998,-2.09998c1.30002,0.29999 2.60001,0.69998 4,1.09998c0.20001,-1.09998 0.60001,-2.09998 0.80002,-3.19998c-1.30002,-0.30002 -2.70001,-0.70001 -4,-1.10001c0.19998,-0.70001 0.29999,-1.39999 0.60001,-2.10001c1.29999,0.30002 2.69998,0.70001 4,1.10001c0.19998,-1.10001 0.59998,-2.10001 0.79999,-3.10001c-3,-0.69998 -6,-1.60001 -9,-2.29999c0.20001,-0.70001 0.29999,-1.39999 0.60001,-2.10001c3,0.70001 5.89999,1.60001 9,2.29999c0.19998,-1.09998 0.60001,-2.09998 0.79999,-3.19998c-1.29999,-0.30002 -2.60001,-0.70001 -4,-1.10001c0.20001,-0.70001 0.30002,-1.39999 0.60001,-2.10001c1.29999,0.30002 2.70001,0.70001 4,1.10001c0.20001,-1.10001 0.60001,-2.10001 0.79999,-3.10001c-1.29999,-0.29999 -2.59998,-0.69998 -4,-1.10001c0.20001,-0.69998 0.30002,-1.39999 0.60001,-2.09998c1.30002,0.29999 2.70001,0.69998 4,1.09998c0.20001,-1.09998 0.60001,-2.09998 0.80002,-3.09998c-1.30002,-0.30002 -2.70001,-0.70001 -4,-1.10001c0.19998,-0.70001 0.29999,-1.39999 0.59998,-2.10001c1.30002,0.29999 2.70001,0.70001 4,1.10001c0.20001,-1.10001 0.60001,-2.10001 0.80002,-3.10001c-1.30002,-0.29999 -2.60001,-0.70001 -4,-1.10001c0.19998,-0.69998 0.29999,-1.39999 0.60001,-2.10001c1.29999,0.30002 2.59998,0.70001 4,1.10001c0.19998,-1.10001 0.59998,-2.10001 0.79999,-3.10001c-3,-0.69998 -5.89999,-1.59998 -9,-2.29999c0.20001,-0.70001 0.29999,-1.39999 0.60001,-2.10001c3,0.70001 5.89999,1.60001 9,2.30002c0.19998,-1.10001 0.60001,-2.10001 0.79999,-3.10001c-1.29999,-0.30002 -2.60001,-0.70001 -4,-1.10001c0.20001,-0.70001 0.30002,-1.39999 0.60001,-2.10001c1.29999,0.30002 2.60001,0.70001 4,1.10001c0.20001,-1.10001 0.60001,-2.10001 0.79999,-3.10001c-1.29999,-0.29999 -2.59998,-0.7 -4,-1.09999c0.20001,-0.7 0.30002,-1.40001 0.60001,-2.10001c1.30002,0.3 2.60001,0.7 4,1.10001c0.20001,-1.10001 0.60001,-2.10001 0.80002,-3.10001c-1.30002,-0.3 -2.60001,-0.7 -4,-1.09999c0.19998,-0.70001 0.29999,-1.40001 0.59998,-2.10001c1.30002,0.3 2.70001,0.7 4,1.10001c0.20001,-1.10001 0.5,-2.10001 0.80002,-3.10001c-1.30002,-0.3 -2.60001,-0.7 -4,-1.10001c0.19998,-0.7 0.29999,-1.39999 0.60001,-2.09999c1.29999,0.3 2.59998,0.7 4,1.09999c0.19998,-1.09999 0.59998,-2.09999 0.79999,-3.09999c-3,-0.7 -5.89999,-1.60001 -9,-2.3c0.20001,-0.7 0.29999,-1.39999 0.60001,-2.10001c3,0.70001 5.89999,1.60001 9,2.3c0.10001,-0.2 0.10001,-0.39999 0.19998,-0.59999l0.5,0l0.90002,-3.5l-20.70001,0l-7.20001,35.89999c-1.79999,10.40002 -3.79999,20.70001 -5,30.40002l-0.19998,0c-1.30002,-9.70001 -2.70001,-19.10001 -4.70001,-29.40002l-7,-36.89999l-21,0l-7.39999,35.89999c-2.20001,10.80002 -4.29999,21.30002 -5.70001,30.80002l-0.19998,0c-1.39999,-8.80002 -3.20001,-20.10001 -5.20001,-30.5l-6.60001,-36.10001l-21.19998,0l0.79999,3.5c3,-0.7 5.89999,-1.40001 8.89999,-2.10001c0.20001,0.7 0.30002,1.40001 0.5,2.10001c-3,0.7 -5.89999,1.39999 -8.89999,2.09999l0.70001,3.10001c1.29999,-0.3 2.60001,-0.7 4,-0.89999c0.19998,0.7 0.29999,1.39999 0.5,2.09999c-1.30002,0.3 -2.60001,0.7 -4,0.90001l0.69998,3.09999c1.30002,-0.3 2.60001,-0.7 4,-0.89999c0.20001,0.7 0.30002,1.39999 0.5,2.09999c-1.29999,0.3 -2.59998,0.70001 -4,0.90001l0.70001,3.2c1.29999,-0.3 2.60001,-0.7 4,-0.89999c0.20001,0.7 0.29999,1.39999 0.5,2.09999c-1.29999,0.3 -2.60001,0.7 -4,0.90001l0.70001,3.09999c1.29999,-0.29999 2.59998,-0.7 4,-0.89999c0.19998,0.70001 0.29999,1.39999 0.5,2.10001c-1.30002,0.29999 -2.60001,0.69998 -4,0.89999l0.69998,3.20001c3,-0.70001 5.89999,-1.40002 8.89999,-2.10001c0.20001,0.69998 0.30002,1.39999 0.5,2.10001c-3,0.69998 -5.89999,1.39999 -8.89999,2.09998l0.70001,3.10001c1.29999,-0.29999 2.60001,-0.69998 4,-0.89999c0.19998,0.70001 0.29999,1.39999 0.5,2.10001c-1.30002,0.29999 -2.60001,0.69998 -4,0.89999l0.69998,3.10001c1.30002,-0.30002 2.60001,-0.70001 4,-0.89999c0.20001,0.69998 0.30002,1.39999 0.5,2.09998c-1.29999,0.30002 -2.59998,0.70001 -4,0.90002l0.70001,3.09998c1.29999,-0.29999 2.60001,-0.69998 4,-0.89999c0.20001,0.70001 0.29999,1.39999 0.5,2.10001c-1.29999,0.29999 -2.60001,0.70001 -4,0.89999l0.70001,3.10001c1.29999,-0.29999 2.59998,-0.70001 4,-0.89999c0.19998,0.69998 0.29999,1.39999 0.5,2.10001c-1.30002,0.29999 -2.60001,0.69998 -4,0.89999l0.69998,3.19998c3,-0.69998 5.89999,-1.39999 8.89999,-2.09998c0.20001,0.69998 0.30002,1.39999 0.5,2.09998c-3,0.70001 -5.89999,1.40002 -8.89999,2.10001l0.70001,3.10001c1.29999,-0.29999 2.60001,-0.70001 4,-0.89999c0.19998,0.69998 0.29999,1.39999 0.5,2.10001c-1.30002,0.29999 -2.60001,0.69998 -4,0.89999l0.69998,3.19998c1.30002,-0.29999 2.60001,-0.69998 4,-0.89999c0.20001,0.70001 0.30002,1.39999 0.5,2.10001c-1.29999,0.29999 -2.59998,0.70001 -4,0.89999l0.70001,3.10001c1.29999,-0.29999 2.60001,-0.70001 4,-0.89999c0.20001,0.69998 0.29999,1.39999 0.5,2.09998c-1.29999,0.30002 -2.60001,0.70001 -4,0.90002l0.70001,3.19998c1.29999,-0.29999 2.59998,-0.69998 4,-0.89999c0.19998,0.70001 0.29999,1.39999 0.5,2.10001c-1.30002,0.29999 -2.60001,0.69998 -4,0.89999l0.69998,3.10001c3,-0.70001 5.89999,-1.40002 9,-2.10001c0.20001,0.69998 0.30002,1.39999 0.5,2.10001c-3,0.69998 -5.89999,1.39999 -9,2.09998l0.70001,2.60001l21.69998,0l8.30002,-37.69998c2,-8.5 3.39999,-16.5 4.89999,-25.80002c-0.39999,-2.59999 -0.79999,-5.39999 -1.20001,-8l0.10001,0c0.39999,0.10001 0.70001,0.10001 1.10001,0.20001c0,0.09999 0,0.2 0.10001,0.29999c0.19998,0 0.39999,-0.09999 0.60001,-0.09999m-4.79999,-14.40001l5.29999,-1.10001l0.30002,1.60001l-5.30002,1.09999l-0.29999,-1.59999zm2.29999,8.20001l5.29999,-1.09999l0.30002,1.59999l-5.30002,1.10001l-0.29999,-1.60001zm0.89999,5.29999l-0.30002,-1.60001l5.30002,-1.09999l0.29999,1.59999l-5.29999,1.10001zm-1.60001,-7.5l-0.29999,-1.60001l10.89999,-2.2l0.29999,1.7l-10.89999,2.10001z" fill="#112A17"/>
    <g id="svg_43">
     <g id="svg_44">
      <path id="svg_45" d="m604.29999,32.5l0,0.2l-0.5,0c0.10004,-0.2 0.40002,-0.2 0.5,-0.2z" fill="#112A17"/>
      <path id="svg_46" d="m603.29999,27.2c-1.79999,1.8 -3.70001,3.60001 -5.5,5.40001l3.70001,0l2.20001,0c0,0 0,0 0.09998,0c0.09998,-0.20001 0.29999,-0.20001 0.5,-0.20001l0,-0.09999l0,-1.3l0,-4.10001c-0.20001,-0.09999 -0.79999,0.20001 -1,0.3z" fill="#112A17"/>
      <path id="svg_47" d="m599.29999,53.89999c0,0.10001 0,0.29999 0,0.39999c-0.29999,0.29999 -0.70001,0.70001 -1,0.70001c-0.40002,0 -0.79999,-0.5 -0.90002,-0.90002c-0.09998,-0.19998 0.5,-0.79999 0.80005,-0.79999c0.29999,-0.09998 0.70001,0.20001 1.09998,0.60001z" fill="#112A17"/>
      <path id="svg_48" d="m594.29999,30c-0.40002,-0.10001 -0.90002,-0.60001 -0.90002,-0.89999c0,-0.40001 0.60004,-0.90001 0.90002,-0.90001c0.40002,0 0.70001,0.5 1.29999,0.90001c-0.59998,0.39999 -1,0.89999 -1.29999,0.89999z" fill="#112A17"/>
      <path id="svg_49" d="m591.70001,23c-0.40002,-0.7 -0.90002,-1.2 -0.79999,-1.39999c0,-0.3 0.59998,-0.8 0.89996,-0.8c0.30005,0 0.80005,0.5 0.90002,0.89999c0.09998,0.3 -0.40002,0.60001 -1,1.3z" fill="#112A17"/>
      <path id="svg_50" d="m590.29999,64.89999c-0.40002,-0.60001 -0.90002,-1 -0.79999,-1.30002c0,-0.39999 0.59998,-0.89999 0.89996,-0.79999c0.30005,0 0.90002,0.5 0.90002,0.79999c0,0.30002 -0.5,0.70001 -1,1.30002z" fill="#112A17"/>
      <path id="svg_51" d="m587,28.7c0,-0.3 0.5,-0.7 1,-1.3c0.40002,0.70001 0.90002,1.20001 0.79999,1.40001c-0.09998,0.39999 -0.70001,0.8 -1,0.8c-0.29999,0 -0.79999,-0.60001 -0.79999,-0.90001z" fill="#112A17"/>
      <path id="svg_52" d="m585.70001,57.79999c-0.29999,0 -0.90002,-0.5 -0.90002,-0.79999c0,-0.40002 0.5,-0.90002 0.90002,-1c0.29999,0 0.70001,0.5 1.29999,0.89999c-0.59998,0.5 -1,1 -1.29999,0.89999z" fill="#112A17"/>
      <path id="svg_53" d="m578.59998,29.5c0.09998,-0.39999 0.5,-0.89999 0.90002,-1c0.29999,0 0.69995,0.39999 1,0.60001c0,0.2 0,0.29999 0,0.5c-0.30005,0.2 -0.70001,0.7 -1,0.59999c-0.29999,0 -0.90002,-0.5 -0.90002,-0.7z" fill="#112A17"/>
      <path id="svg_54" d="m565,29.3c0.09998,-0.3 0.59998,-0.8 0.90002,-0.8c0.29999,0.10001 0.79999,0.60001 0.79999,0.89999c0.09998,0.3 -0.40002,0.70001 -0.60004,1.20001c-0.19995,-0.10001 -0.29999,-0.10001 -0.5,-0.10001c-0.19995,-0.39999 -0.59998,-0.8 -0.59998,-1.2z" fill="#112A17"/>
      <path id="svg_55" d="m553.40002,45.29999c0,-0.39999 0.5,-0.89999 0.79999,-0.89999s0.90002,0.5 0.90002,0.89999c0,0.29999 -0.40002,0.70001 -0.70001,1c-0.09998,0 -0.29999,0 -0.40002,0c-0.20001,-0.29999 -0.70001,-0.69998 -0.59998,-1z" fill="#112A17"/>
      <path id="svg_56" d="m549.5,50.10001c0,-0.39999 0.40002,-0.79999 0.70001,-1.19998c0.09998,0 0.29999,0 0.39996,0c0.20001,0.29999 0.70001,0.69998 0.70001,1c-0.09998,0.39999 -0.59998,0.69998 -0.89996,1c-0.40002,-0.30002 -0.90002,-0.60004 -0.90002,-0.80002z" fill="#112A17"/>
      <path id="svg_57" d="m547.70001,41.10001c0,-0.29999 0.5,-0.79999 0.90002,-0.89999c0.29999,0 0.69995,0.5 1.29999,1c-0.70001,0.39999 -1.20001,0.89999 -1.40002,0.79999c-0.29999,-0.10001 -0.79999,-0.60001 -0.79999,-0.89999z" fill="#112A17"/>
      <path id="svg_58" d="m548.09998,57.70001c-0.20001,0 -0.79999,-0.5 -0.79999,-0.79999c0,-0.40002 0.39996,-0.80002 0.59998,-1.20001c0.20001,0 0.29999,0 0.5,0c0.20001,0.29999 0.70001,0.70001 0.60004,1c0,0.5 -0.5,1 -0.90002,1z" fill="#112A17"/>
      <path id="svg_59" d="m547.09998,21.3c-0.40002,-0.3 -0.90002,-0.60001 -1,-1c0,-0.3 0.5,-0.7 1,-1.3c0.40002,0.7 0.90002,1 0.90002,1.39999c-0.09998,0.3 -0.59998,0.60001 -0.90002,0.90001z" fill="#112A17"/>
      <path id="svg_60" d="m545.09998,28.7c0.59998,-0.5 1,-1 1.29999,-0.89999c0.40002,0 0.90002,0.5 0.90002,0.89999c0,0.3 -0.5,0.8 -0.90002,0.90001c-0.19995,0 -0.69995,-0.5 -1.29999,-0.90001z" fill="#112A17"/>
      <path id="svg_61" d="m545.70001,63.60001c-0.29999,-0.29999 -0.90002,-0.69998 -0.90002,-1c-0.09998,-0.29999 0.40002,-0.69998 0.90002,-1.29999c0.40002,0.60001 0.90002,1 0.90002,1.29999c-0.10004,0.29999 -0.70001,0.69998 -0.90002,1z" fill="#112A17"/>
      <path id="svg_62" d="m543.70001,71.89999c0.59998,-0.5 1,-0.89999 1.29999,-0.89999c0.40002,0.09998 0.90002,0.59998 0.90002,0.89999s-0.5,0.89999 -0.90002,0.89999c-0.29999,0 -0.70001,-0.39999 -1.29999,-0.89999z" fill="#112A17"/>
     </g>
     <g id="svg_63">
      <path id="svg_64" d="m606,97.70001c0,0.10001 0.09998,0.39999 0.29999,0.60001l0,-0.70001l0,-0.29999c-0.09998,-0.00003 -0.29999,0.29999 -0.29999,0.39999z" fill="#112A17"/>
      <path id="svg_65" d="m555.70001,32.8c0.40002,0 1,0.2 1.29999,0.59999c0.20001,0.20001 0.5,0.40001 0.70001,0.60001l0,-1.3l8.09998,0l0.10004,0l13.39996,0c0.10004,0 0.20001,0 0.30005,0l16,0c2.09998,-2.09999 4.5,-4.5 6.59998,-6.59999c0.5,-0.5 1,-0.70001 1.70001,-0.70001c0.09998,0 0.20001,0 0.29999,0l0,-0.59999l0,-4.8c-0.09998,0 -0.09998,0.10001 -0.20001,0.10001c-2.5,2.39999 -5,4.89999 -7.29999,7.2c-0.40002,0.39999 -0.5,0.59999 -0.40002,1.2c0.30005,1.3 -0.59998,2.60001 -2,2.8c-1.29999,0.09999 -2.5,-0.90001 -2.5,-2.2c0,-1.3 1,-2.40001 2.60004,-2.10001c0.39996,-0.2 0.79999,-0.39999 1.20001,-0.7c2.59998,-2.60001 5.09998,-5.10001 7.69995,-7.60001c0.20001,-0.2 0.5,-0.39999 0.80005,-0.39999l0,-1.3l-65.10004,0l0,2.60001c1.29999,-0.10001 3.5,-0.20001 4.70001,-0.20001c0.40002,-0.09999 0.90002,-0.29999 1.20001,-0.59999c1,-1.2 2.5,-1.2 3.39996,-0.3c1,0.89999 1,2.39999 0,3.2c-0.89996,1 -2.39996,0.90001 -3.29999,-0.2c-0.29999,-0.3 -0.70001,-0.5 -1,-0.5c-1.39996,-0.10001 -3.59998,-0.10001 -4.89996,-0.10001l0,11.8c5.39996,0.10001 11.29999,0 16.59998,0.10001zm24.59998,-1.40001c-0.90002,0.39999 -2,0.2 -2.59998,-0.60001c-0.40002,-0.59999 -0.80005,-0.7 -1.60004,-0.7c-2.5,0 -5,0 -7.39996,0c-0.40002,0 -0.80005,0.2 -1.20001,0.5c-0.90002,1.2 -2.20001,1.39999 -3.29999,0.39999c-1.20001,-0.89999 -1.20001,-2.39999 -0.10004,-3.29999c1,-0.90001 2.60004,-0.70001 3.5,0.39999c0.20001,0.2 0.60004,0.5 0.90002,0.5c2.59998,0 5.20001,0 7.79999,0c0.40002,0 0.79999,-0.3 1.20001,-0.60001c0.70001,-0.7 1.70001,-1.2 2.59998,-0.79999c0.79999,0.29999 1.40002,1.29999 1.40002,2.09999c0.09998,1.10001 -0.29999,1.90001 -1.20001,2.10001zm11.60004,-12c1.20001,0 2.20001,1.2 2.20001,2.39999c0,1.2 -1.20001,2.10001 -2.40002,2.10001c-1.20001,0 -2.09998,-1 -2.09998,-2.2c-0.10004,-1.3 0.99994,-2.3 2.29999,-2.3zm-47.70001,9.10001c0.09998,-1.3 1.29999,-2.10001 2.79999,-2.10001c0.29999,0 0.79999,-0.09999 1,-0.29999c1.70001,-1.70001 3.40002,-3.40001 5.10004,-5c0.29999,-0.3 0.69995,-0.5 1.19995,-0.5c8.60004,0 17.20001,0 25.70001,0c0.5,0 1,0.2 1.29999,0.5c1.60004,1.59999 3.40002,3.29999 5,4.89999c0.30005,0.39999 0.70001,0.7 1.30005,0.5c1.19995,-0.3 2.5,0.8 2.59998,2.10001c0.09998,1.2 -0.79999,2.2 -2.09998,2.39999c-1.40002,0.10001 -2.60004,-0.8 -2.40002,-2.10001c0.09998,-1 -0.29999,-1.59999 -0.90002,-2.09999c-1.29999,-1.3 -2.59998,-2.60001 -4,-4c-0.39996,-0.3 -1,-0.60001 -1.59998,-0.60001c-4.09998,-0.09999 -8.09998,0 -12.09998,0c-4.10004,0 -8.10004,-0.09999 -12.10004,0c-0.59998,0 -1.20001,0.3 -1.70001,0.60001c-1.39996,1.39999 -3,2.89999 -4.29999,4.5c-0.29999,0.2 -0.39996,0.7 -0.39996,1.2c0.09998,1.39999 -0.80005,2.60001 -2.10004,2.60001c-1.29999,-0.20001 -2.40002,-1.40001 -2.29999,-2.60001z" fill="#112A17"/>
      <g id="svg_66">
       <path id="svg_67" d="m595.90002,98.70001c0.09998,0.29999 0.70001,0.79999 0.90002,0.79999c0.29999,0.10001 0.69995,-0.39999 1,-0.59998c0,-0.20001 0,-0.30002 0,-0.5c-0.40002,-0.20001 -0.80005,-0.60001 -1.20001,-0.60001c-0.10004,-0.00003 -0.70001,0.59998 -0.70001,0.89999z" fill="#112A17"/>
       <path id="svg_68" d="m584.20001,99.29999c-0.40002,0 -0.90002,0.60001 -0.90002,0.89999c0,0.30002 0.60004,0.80002 0.90002,0.89999c0.29999,0 0.70001,-0.5 1.29999,-0.89999c-0.59998,-0.49997 -1,-0.99997 -1.29999,-0.89999z" fill="#112A17"/>
       <path id="svg_69" d="m574.40002,96.5c0.29999,0 0.70001,-0.5 1.20001,-0.70001c0,-0.19998 0,-0.29999 -0.10004,-0.39999c-0.29999,-0.29999 -0.69995,-0.69998 -1.19995,-0.60001c-0.30005,0 -0.60004,0.5 -0.90002,0.90002c0.19995,0.19998 0.59998,0.69998 1,0.79999z" fill="#112A17"/>
       <path id="svg_70" d="m560.79999,96.5c0.29999,0 0.70001,-0.39999 1.20001,-0.70001c0,-0.09998 0,-0.19998 0,-0.39999c-0.40002,-0.19998 -0.79999,-0.69998 -1.20001,-0.60001c-0.40002,0 -0.70001,0.5 -1,0.80002c0.20001,0.29999 0.5,0.79999 1,0.89999z" fill="#112A17"/>
       <path id="svg_71" d="m553.70001,88.5c0,-0.29999 -0.5,-0.79999 -0.90002,-0.79999c-0.29999,0 -0.79999,0.5 -0.79999,0.79999c-0.09998,0.29999 0.40002,0.70001 0.60004,1.20001c0.19995,0 0.29999,0 0.39996,0c0.29999,-0.40002 0.79999,-0.90002 0.70001,-1.20001z" fill="#112A17"/>
       <path id="svg_72" d="m548.70001,92.10001c-0.20001,0.39999 -0.70001,0.80002 -0.59998,1.20001c0,0.39999 0.5,0.60001 0.79999,0.89999c0.29999,-0.29999 0.79999,-0.60001 0.89996,-0.89999c0,-0.30002 -0.5,-0.70001 -0.69995,-1.20001c-0.10004,0 -0.30005,0 -0.40002,0z" fill="#112A17"/>
       <path id="svg_73" d="m548.5,84.39999c-0.59998,-0.5 -1,-1 -1.29999,-0.89999c-0.29999,0 -0.90002,0.5 -0.90002,0.79999c0,0.39999 0.5,0.89999 0.90002,1c0.29999,0.10001 0.70001,-0.5 1.29999,-0.89999z" fill="#112A17"/>
       <path id="svg_74" d="m546.59998,101c0.40002,0 0.90002,-0.5 0.90002,-0.79999c0.09998,-0.30002 -0.40002,-0.70001 -0.60004,-1.20001c-0.20001,0 -0.29999,0 -0.5,0c-0.20001,0.39999 -0.59998,0.79999 -0.59998,1.20001c0,0.19998 0.70001,0.89999 0.79999,0.79999z" fill="#112A17"/>
       <g id="svg_75">
        <g id="svg_76">
         <path id="svg_77" d="m600.90002,65.29999l0,-1.60001c-0.5,0.5 -1,1 -1.59998,1.60001l1.59998,0z" fill="#112A17"/>
         <g id="svg_78">
          <path id="svg_79" d="m554.20001,35.10001c0.5,0 1.20001,0.2 1.59998,0.60001c0.60004,0.59999 1.30005,1.3 2,2l0,-1.70001c0,0 0,0 0,-0.10001c-0.29999,-0.29999 -0.59998,-0.59999 -0.89996,-0.89999c-0.60004,-0.60001 -1.20001,-0.8 -2.10004,-0.8c-4.59998,0 -9.19995,0 -13.79999,0c-0.29999,0 -1.39996,0 -1.70001,-0.09999l0,1c2,0 4.70001,0 6.70001,0c2.70001,0 5.5,0 8.20001,0z" fill="#112A17"/>
          <path id="svg_80" d="m600.70001,55.89999c0.09998,0.10001 0.20001,0.19998 0.29999,0.29999l0,-6l-43.20001,0l0,-10.19998l0,-0.10001c-0.79999,-0.79999 -1.69995,-1.59999 -2.59998,-2.59999c-0.29999,-0.3 -0.70001,-0.60001 -1.20001,-0.60001c-4.59998,0 -10.09998,0 -14.70001,0l0,3.90001c1.70001,0 4.30005,0 6.20001,0c0.60004,0 0.90002,-0.10001 1.29999,-0.70001c0.80005,-1.2 2.20001,-1.2 3.30005,-0.29999c1,0.79999 1,2.5 0,3.29999c-0.90002,0.89999 -2.40002,0.70001 -3.30005,-0.29999c-0.29999,-0.20001 -0.79999,-0.5 -1.19995,-0.5c-1.80005,0 -4.5,0 -6.40002,0l0,2.60001c1.59998,0 3.90002,0 5.5,0c1.79999,0 3.79999,0 5.79999,0c0.79999,0.09998 1.60004,0 2.10004,-0.80002c0.59998,-1 2.09998,-0.89999 3.09998,-0.19998c1,0.89999 1,2.19998 0.09998,3.19998c-0.79999,0.89999 -2.39996,1.20001 -3.09998,0.10001c-0.59998,-0.70001 -1.20001,-0.70001 -2.09998,-0.70001c-3.60004,0 -7.90002,0 -11.5,0l0,10.10001c1.69995,0 4.19995,0 5.89996,-0.19998c0.40002,0 0.90002,-0.20001 1.20001,-0.5c1,-1.20001 2.5,-1.30002 3.5,-0.30002c0.90002,0.89999 0.90002,2.39999 -0.09998,3.30002c-1,0.79999 -2.5,0.59998 -3.40002,-0.5c-0.20001,-0.20001 -0.59998,-0.40002 -1,-0.40002c-1.59998,-0.09998 -4.20001,-0.09998 -5.90002,-0.09998l0,4.39999c1.20001,0 2.20001,0 3.40002,-0.10001c0.29999,0 0.79999,-0.29999 1.20001,-0.60001c0.89996,-1 2.39996,-1.19998 3.39996,-0.29999c0.90002,0.89999 0.90002,2.39999 0,3.29999c-1,0.89999 -2.5,0.80002 -3.39996,-0.29999c-0.29999,-0.20001 -0.70001,-0.5 -1,-0.5c-1.20001,-0.10001 -2.40002,0 -3.5,0l0,12.39999c5,0 9.20001,0 14.20001,0c0.39996,0 1.79999,0.29999 2.09998,0.60001c0.70001,0.69998 1.40002,1.39999 2.09998,2.10001l0,-13.40002l22.30005,0c-0.20001,-0.19998 -0.40002,-0.39999 -0.60004,-0.59998c-0.39996,-0.40002 -1,-0.60001 -1.59998,-0.70001c-4.10004,0 -8.10004,0 -12.10004,0c-4.09998,0 -8.09998,0 -12.09998,0c-0.5,0.10001 -1.20001,0.29999 -1.59998,0.70001c-1.60004,1.29999 -3,4.19998 -4.5,5.59998c-0.30005,0.30002 -0.40002,0.80002 -0.40002,1.20001c0.09998,1.60001 -0.79999,2.60001 -2.09998,2.60001c-1.30005,0 -2.5,-1.20001 -2.40002,-2.39999c0.09998,-1.40002 1.29999,-2.20001 2.79999,-2.10001c0.29999,0.10001 0.79999,-0.10001 1,-0.30002c1.70001,-1.69998 3.40002,-4.59998 5.10004,-6.39999c0.29999,-0.19998 0.79999,-0.39999 1.19995,-0.39999c8.5,-0.10001 17.10004,-0.10001 25.60004,0c0.5,0 1,0.20001 1.29999,0.5c0.79999,0.70001 1.59998,1.39999 2.40002,2.20001l6.79999,0c-0.5,-0.40002 -0.79999,-1.20001 -0.79999,-1.80002c0,-1.19998 1,-2.10001 2.19995,-2.10001s2.20001,1 2.20001,2.20001c0,0.70001 -0.39996,1.29999 -0.89996,1.70001l5.59998,0c1.20001,-1.20001 2.40002,-2.40002 3.5,-3.5l0,-3.70001c-0.5,-0.39999 -0.90002,-0.89999 -1.40002,-1.29999c-0.29999,-0.30002 -0.79999,-0.5 -1.19995,-0.5c-1.40002,-0.10001 -2.5,-1.20001 -2.20001,-2.5c0.09998,-1.20001 1.29999,-2.20001 2.59998,-2.10001c1.29999,0.29999 2.10004,1.60001 1.70001,2.89999c0.09998,0.70001 0.09998,1 0.5,1.39999zm-13.5,2.70001c-0.90002,0.89999 -2.5,0.89999 -3.20001,-0.10001c-0.5,-0.79999 -1.20001,-0.79999 -1.79999,-0.79999c-8.20001,0 -16.40002,0 -24.5,0c-0.79999,0 -1.29999,-0.20001 -1.79999,-0.70001c-1.29999,-1.39999 -2.79999,-2.79999 -4.10004,-4.09998c-0.29999,-0.30002 -0.79999,-0.5 -1.19995,-0.5c-1.30005,0 -2.5,-1.20001 -2.40002,-2.40002c0,-1.39999 1.20001,-2.39999 2.59998,-2.09998c1.20001,0.19998 2.10004,1.39999 1.70001,2.79999c-0.20001,0.70001 0,1 0.5,1.60001c1.20001,1.19998 2.40002,2.39999 3.60004,3.5c0.29999,0.29999 0.79999,0.5 1.29999,0.5c4.09998,0.10001 8.29999,0.10001 12.5,0.10001c4,0 8,0 12.09998,0c0.5,0 0.90002,-0.10001 1.29999,-0.70001c0.80005,-1 2.40002,-1 3.30005,-0.10001c0.99994,0.60001 0.99994,2.10001 0.09998,3z" fill="#112A17"/>
         </g>
        </g>
        <path id="svg_81" d="m552.79999,78.39999c0.5,0 1.20001,0.29999 1.59998,0.69998c1.20001,1.20001 2.20001,2.20001 3.40002,3.40002l0,-1.70001c-0.79999,-0.70001 -1.59998,-1.60001 -2.40002,-2.39999c-0.59998,-0.60001 -1.19995,-0.89999 -2.09998,-0.89999c-4.59998,0.09998 -9.20001,0.09998 -13.79999,0.09998c-0.10004,0 -0.20001,0 -0.29999,0l0,0.90002c1.69995,0 3.5,-0.10001 5.39996,-0.10001c2.70001,0 5.40002,0 8.20001,0z" fill="#112A17"/>
        <path id="svg_82" d="m606.40002,95.60001l0,-5.89999l-40.79999,0c1.09998,0.89999 2.09998,1.79999 2.39996,1.79999c4.5,-0.09998 12.90002,0 17.40002,0c0.40002,0 0.70001,0 0.90002,-0.29999l0,0c0.09998,-0.10001 0.09998,-0.20001 0.19995,-0.29999c0.80005,-1.20001 2.40002,-1.20001 3.30005,-0.30002c0.89996,0.89999 0.89996,2.60001 0.09998,3.30002c-0.90002,0.89999 -2.5,0.79999 -3.29999,-0.30002c-0.29999,-0.60001 -0.70001,-0.60001 -1.29999,-0.60001c-4.60004,0 -13,-0.09998 -17.80005,0c-0.89996,0 -1.39996,-0.29999 -2.09998,-0.79999c-0.20001,-0.20001 -1.29999,-1.29999 -2.5,-2.5l-5.20001,0l0,-5.20001c-1.29999,-1.39999 -2.59998,-2.79999 -4.09998,-4.09998c-0.20001,-0.30002 -0.70001,-0.5 -1.20001,-0.5c-4.5,-0.10001 -8.79999,0 -13.20001,0l0,3.79999c1.60004,0 3.20001,0 4.70001,0.10001c0.59998,0 1,-0.20001 1.29999,-0.70001c0.79999,-1.19998 2.20001,-1.29999 3.29999,-0.39999c1,0.89999 1,2.5 0.10004,3.39999c-1,0.80002 -2.5,0.70001 -3.40002,-0.29999c-0.29999,-0.30002 -0.70001,-0.5 -1.20001,-0.5c-1.69995,-0.10001 -3.29999,-0.10001 -5,-0.10001l0,2.60001c1.30005,0 2.80005,0.10001 4.10004,0.10001c2,0 3.79999,0 5.79999,0c0.90002,0 1.59998,0 2.09998,-0.90002c0.60004,-0.89999 2.20001,-0.89999 3.10004,-0.09998c1,0.89999 1,2.09998 0.09998,3.19998c-0.79999,0.89999 -2.20001,1 -3.09998,0.10001c-0.60004,-0.70001 -1.20001,-0.70001 -2.10004,-0.70001c-3.29999,0 -6.69995,0 -10.09998,0l0,10c1.59998,0 3,0 4.5,0c0.29999,-0.09998 0.79999,-0.29999 1,-0.59998c1,-1.20001 2.5,-1.30002 3.5,-0.30002c1,1 0.90002,2.39999 -0.09998,3.30002s-2.5,0.59998 -3.40002,-0.40002c-0.20001,-0.29999 -0.59998,-0.5 -0.90002,-0.5c-1.59998,0 -3.09998,0 -4.59998,0l0,4.10001l63.09998,0c-1.40002,-1.19998 -2.59998,-2.29999 -4.09998,-3.5c-0.30005,-0.29999 -0.80005,-0.5 -1.20001,-0.60001c-1.40002,0 -2.5,-1 -2.20001,-2.39999c0.09998,-1.29999 1.29999,-2.19998 2.59998,-2.10001c1.30005,0.20001 2.10004,1.60001 1.70001,2.90002c-0.09998,0.5 0,0.79999 0.29999,1.19998c1.30005,1.30002 2.60004,2.10001 3.90002,3.39999c0.29999,0.40002 0.90002,0.60001 1.40002,0.60001c0.69995,0 1.19995,0 1.79999,0l0,-4.60001c-0.40002,-0.09998 -0.60004,-0.19998 -0.90002,-0.5c-0.89996,-0.79999 -0.89996,-2.39999 0,-3.29999c0.5,-0.40002 0.70001,-0.60001 1.10004,-0.60001zm-46.40002,-2.10001c0.90002,-0.29999 2,0 2.5,0.79999c0.29999,0.60001 0.70001,0.70001 1.20001,0.60001c2.5,0 5,0 7.5,0.10001c0.59998,0 1,-0.10001 1.29999,-0.70001c0.59998,-0.79999 1.70001,-1.19998 2.59998,-0.69998c0.90002,0.29999 1.40002,1 1.40002,2.10001c0,0.89999 -0.5,1.59998 -1.29999,2.09998c-0.90002,0.30002 -2.10004,0.10001 -2.60004,-0.69998c-0.39996,-0.60001 -0.79999,-0.70001 -1.39996,-0.70001c-2.60004,0 -5.10004,0 -7.60004,0.10001c-0.39996,0 -0.79999,0.20001 -1,0.5c-0.69995,0.70001 -1.69995,1.20001 -2.59998,0.79999c-0.79999,-0.29999 -1.40002,-1.19998 -1.40002,-2.09998c-0.19995,-1.10001 0.30005,-1.80002 1.40002,-2.20001zm25.79999,8.39999c-0.90002,0.89999 -2.5,0.89999 -3.20001,-0.20001c-0.5,-0.69998 -1.20001,-0.79999 -1.79999,-0.79999c-8.20001,0 -16.40002,0 -24.5,0c-0.79999,0 -1.29999,-0.10001 -1.79999,-0.70001c-1.29999,-1.39999 -2.79999,-2.79999 -4.10004,-4.10001c-0.29999,-0.19998 -0.79999,-0.39999 -1.19995,-0.39999c-1.20001,-0.10001 -2.5,-1.19998 -2.40002,-2.5c0.09998,-1.29999 1.20001,-2.19998 2.59998,-2.10001c1.20001,0.20001 2.10004,1.30002 1.70001,2.60001c-0.20001,0.70001 0,1.20001 0.5,1.60001c1.20001,1.20001 2.40002,2.5 3.60004,3.60001c0.29999,0.29999 0.89996,0.5 1.29999,0.5c4.20001,0 8.29999,0 12.5,0c4,0 8,0 12.09998,0c0.60004,0 1,-0.10001 1.40002,-0.60001c0.70001,-1 2.20001,-1.20001 3.20001,-0.20001c1,0.80002 1,2.50003 0.09998,3.30002z" fill="#112A17"/>
       </g>
       <path id="svg_83" d="m589.09998,92.29999c0.09998,-0.29999 -0.5,-0.70001 -1,-1.20001c-0.40002,0.70001 -0.90002,1.20001 -0.79999,1.5c0,0.30002 0.70001,0.70001 1,0.70001c0.29999,0 0.90002,-0.59998 0.79999,-1z" fill="#112A17"/>
      </g>
     </g>
    </g>
    <g id="svg_84">
     <polygon id="svg_85" points="90.30000305175781,17 90.30000305175781,104.89999389648438 81.10000610351562,104.89999389648438 71.89999389648438,104.89999389648438 71.89999389648438,65.29998779296875 44.69999694824219,65.29998779296875 44.69999694824219,50.20001220703125 71.89999389648438,50.20001220703125 71.89999389648438,17 81.10000610351562,17 " fill="#112A17"/>
     <path id="svg_86" d="m43.1,39.2c5.7,-2.89999 6.8,-7.5 7.00001,-13.89999c0.2,-5.3 -2.10001,-9.5 -6.3,-12.90001c0,0.40001 0,0.70001 0,1c0,2.70001 0,7.70001 0,10.40001c0,0.59999 -0.10001,0.89999 -0.7,1.2c-2.7,1.2 -5.4,2.39999 -8.1,3.5c-0.5,0.2 -1.2,0.2 -1.6,0c-2.6,-1.2 -5.3,-2.39999 -8,-3.5c-0.6,-0.2 -0.7,-0.60001 -0.7,-1.2c0,-2.7 0,-7.8 0,-10.5c0,-0.2 0,-0.5 -0.1,-0.7c-0.4,0.2 -0.7,0.5 -1.1,0.7c-0.3,0.3 -0.7,0.7 -0.9,0.89999c-0.3,0.5 -0.7,0.90001 -1.1,1.40001c-5.9,7.79999 -4.9,19.39999 4,23.7c0.5,0.2 0.7,0.5 0.7,1.2c0,4.5 0,5.5 0,9.89999c0,6.10001 0,12.20001 0,18.30002c0,6.89999 0.10001,18.59998 0.10001,18.59998c0,0.20001 -0.10001,0.70001 -0.2,0.90002c-1.7,1 -3.7,3.69998 -4.4,5l0,0c-1.39999,2.79999 -1.7,4.19998 -1.7,6.59998c0,7.80002 6.4,14.10001 14.1,14.10001c7.8,0 14.1,-6.39999 14.1,-14.10001c0,-2.39999 -0.59999,-4.59998 -1.7,-6.59998l0,0c-0.7,-1.20001 -1.6,-3.10001 -3.9,-4.60001c-0.5,-0.30002 -0.5,-0.70001 -0.5,-1.20001c0,-10.69998 -0.1,-19.29999 -0.1,-30.10001c0,-6.79999 0,-9.89999 0,-16.69998c0.3,-0.8 0.6,-1 1.1,-1.40001zm-1.2,64.40001c0,0.60001 -0.3,1.20001 -0.8,1.39999l-6.1,3.5c-0.5,0.30002 -1.2,0.30002 -1.7,0l-6.10001,-3.5c-0.5,-0.29999 -0.8,-0.79999 -0.8,-1.39999l0,-7.10001c0,-0.59998 0.3,-1.19998 0.8,-1.39999l6.10001,-3.5c0.5,-0.29999 1.2,-0.29999 1.7,0l6.1,3.5c0.5,0.30002 0.8,0.80002 0.8,1.39999l0,7.10001z" fill="#112A17"/>
    </g>
    <path id="svg_87" d="m285.70001,80.29999l1,-1.70001l4.79999,2.80002c3.20001,-5.89999 5.20001,-12.70001 5.40002,-19.89999l-5.60001,0l0,-2.10001l5.60001,0c-0.20001,-7.20001 -2.10001,-13.89999 -5.30002,-19.90001l-4.89999,2.8l-1,-1.70001l4.89999,-2.79999c-3.60001,-5.89999 -8.69998,-11 -14.60001,-14.59999l-2.79999,4.89999l-1.70001,-1l2.80002,-5c-5.89999,-3.3 -12.70001,-5.2 -20,-5.39999l0,5.7l-2.10001,0l0,-5.7l-15.29999,0l0,8.59999l7.79999,0l0,2.10001l-7.79999,0l0,3.2l5.29999,0l0,2.10001l-5.29999,0l0,3.2l7.79999,0l0,2.09999l-7.79999,0l0,3.2l5.29999,0l0,2.10001l-5.29999,0l0,3.20001l7.79999,0l0,2.09998l-7.79999,0l0,3.20001l5.29999,0l0,2.10001l-5.29999,0l0,3.19998l5.29999,0l0,2.10001l-5.29999,0l0,3.20001l7.79999,0l0,2.10001l-7.79999,0l0,3.19998l5.29999,0l0,2.10001l-5.29999,0l0,3.20001l7.79999,0l0,2.09998l-7.79999,0l0,3.20001l5.29999,0l0,2.10001l-5.29999,0l0,3.19998l7.79999,0l0,2.10001l-7.79999,0l0,3.20001l5.29999,0l0,2.10001l-5.29999,0l0,3.09998l7.79999,0l0,2.10001l-7.79999,0l0,3.20001l0,5.5l15.29999,0l0,-5.5l2.10001,0l0,5.5c7.19998,-0.20001 13.89999,-2.10001 19.89999,-5.30002l-2.79999,-4.79999l1.69998,-1l2.80002,4.79999c5.89999,-3.59998 11,-8.59998 14.59998,-14.5l-4.79999,-3.79999zm-32.40002,8.80002l0,-27.60001l-3.29999,0c-0.10001,0 -0.20001,-0.09998 -0.20001,-0.19998l0,-1.70001c0,-0.10001 0.10001,-0.19998 0.20001,-0.19998l3.29999,0l0,-27.80002c15.80002,0 28.70001,12.89999 28.70001,28.70001c0,15.89999 -12.79999,28.79999 -28.70001,28.79999z" fill="#112A17"/>
   </g>
  </g>
 </g>
</svg>
